<svg width="296" height="74" viewBox="0 0 296 74" fill="none" xmlns="http://www.w3.org/2000/svg">
<path fill-rule="evenodd" clip-rule="evenodd" d="M50.2289 63.14V64.4555H51.6107H52.9926V63.14V61.8245H51.6107H50.2289V63.14ZM67.2458 62.8842C67.0781 63.4669 66.8789 64.1346 66.8033 64.3676C66.7277 64.6008 66.6657 64.8144 66.6657 64.8427C66.6657 64.982 67.8038 64.8701 68.0041 64.7112C68.4633 64.3467 70.1617 62.0969 70.0789 61.9624C70.0323 61.8866 69.4444 61.8245 68.7724 61.8245H67.5508L67.2458 62.8842ZM81.5025 63.14V64.4555H82.8844H84.2662V63.14V61.8245H82.8844H81.5025V63.14ZM7.53671 62.6827C5.72924 63.1623 4.12207 64.5844 3.55085 66.2095C3.05702 67.6146 3.10487 69.3145 3.67595 70.6533C4.10025 71.6479 5.26217 72.8094 6.41348 73.3902C7.35707 73.8659 7.44987 73.883 9.06403 73.8782C10.5631 73.8738 10.8236 73.8329 11.5736 73.4842C13.9171 72.3943 15.3535 69.7321 14.8875 67.3422C14.6172 65.9563 14.1077 65.0167 13.1363 64.113C12.0094 63.0645 11.0279 62.6835 9.28222 62.6168C8.5622 62.5894 7.77672 62.619 7.53671 62.6827ZM22.1553 68.252V73.837L25.6206 73.787L29.086 73.737L29.9441 73.2959C30.9279 72.79 31.4066 72.1789 31.545 71.2525C31.7403 69.943 31.0429 68.9284 29.5781 68.3919L28.7203 68.0775L29.6105 67.6185C30.7799 67.0157 31.0746 66.498 30.9815 65.2108C30.9029 64.127 30.5102 63.5913 29.4283 63.0925C28.8435 62.8229 28.421 62.7842 25.4645 62.7289L22.1553 62.667V68.252ZM44.0832 63.9791L42.9559 64.5031V65.2101C42.9559 65.8604 42.9277 65.9171 42.6042 65.9171C41.9495 65.9171 41.7923 66.0617 41.7923 66.6636C41.7923 67.23 41.7949 67.2326 42.3741 67.2326H42.9559V69.6214C42.9559 71.8331 42.9808 72.0573 43.2909 72.6466C43.7986 73.6113 44.6072 73.9915 46.0219 73.9307C47.3497 73.8735 47.9028 73.5284 48.5334 72.3645C49.07 71.3737 49.0163 70.9599 48.3508 70.9599C47.9136 70.9599 47.8345 71.0205 47.6836 71.4707C47.4827 72.07 46.7572 72.5668 46.2971 72.4202C45.819 72.2676 45.7196 71.7509 45.7196 69.4156V67.2326H47.0288H48.3379V66.5806V65.9285L47.0651 65.8863L45.7924 65.844L45.7196 64.6762C45.6641 63.7847 45.5953 63.5019 45.4287 63.4816C45.3087 63.4669 44.7033 63.6909 44.0832 63.9791ZM10.293 64.1586C10.582 64.3381 10.9528 64.7492 11.1167 65.0723C11.5716 65.968 11.7742 67.9632 11.5678 69.5127C11.2666 71.7753 10.5537 72.6414 8.99362 72.6402C8.02981 72.6395 7.44842 72.2688 7.01117 71.3761C6.70381 70.7489 6.65858 70.4283 6.61683 68.586C6.55094 65.6724 6.9012 64.5622 8.07622 63.9603C8.68947 63.646 9.59873 63.7274 10.293 64.1586ZM26.9853 64.169C27.7434 64.3806 28.1191 64.9151 28.1191 65.7825C28.1191 66.3081 28.0336 66.5855 27.7799 66.8818C27.4746 67.2385 27.3216 67.2851 26.2526 67.3472L25.0645 67.4163V65.7166V64.017L25.7554 64.0178C26.1354 64.0183 26.6888 64.0862 26.9853 64.169ZM89.5027 65.7869C87.714 66.1333 86.3409 67.1736 86.0017 68.4391C85.7697 69.3053 85.8161 70.9011 86.0938 71.5982C86.4373 72.4613 87.5981 73.4631 88.5901 73.753C89.7203 74.0831 91.2568 73.9813 92.1749 73.5154C93.2372 72.9764 94.1017 71.9336 94.3061 70.9445C94.4845 70.0807 94.3926 68.9194 94.0867 68.172C93.6547 67.1167 92.3485 66.1007 91.1028 65.8512C90.8228 65.7951 90.4955 65.7292 90.3755 65.7046C90.2555 65.68 89.8627 65.7172 89.5027 65.7869ZM35.7557 65.8988C34.5257 66.2273 33.4413 67.1357 32.9793 68.2246C32.6275 69.0544 32.6701 70.6634 33.0688 71.5948C33.497 72.595 34.4614 73.4503 35.5048 73.755C36.6113 74.0783 38.175 73.9829 39.0285 73.54C40.5841 72.733 41.2901 71.5537 41.2734 69.7905C41.2519 67.5099 39.6875 65.9694 37.2608 65.8395C36.673 65.8081 35.9957 65.8347 35.7557 65.8988ZM57.6955 65.9016C56.9741 66.0893 55.9657 66.7419 55.4772 67.3374C54.4362 68.6066 54.285 70.8149 55.1475 72.154C55.9348 73.3764 57.0625 73.9393 58.7461 73.9498C60.3528 73.9599 61.243 73.4295 62.2238 71.8776L62.4752 71.4801L61.9565 71.2314C61.4381 70.9831 61.4372 70.9832 61.1205 71.3878C60.3556 72.3651 60.0953 72.5195 59.329 72.4506C58.7354 72.3973 58.5295 72.2968 58.1424 71.8725C57.7547 71.4473 57.6573 71.1987 57.577 70.4285C57.4721 69.4229 57.6574 68.3069 58.0221 67.7476C58.2754 67.3592 59.0604 66.9403 59.535 66.9403C59.7091 66.9403 60.0499 67.1397 60.2926 67.3835C60.6907 67.7835 60.7243 67.888 60.6392 68.4591C60.5547 69.0252 60.583 69.1167 60.9092 69.3314C61.4477 69.6859 61.5621 69.6368 61.8798 68.9153C62.1203 68.3689 62.1431 68.1643 62.0166 67.6919C61.8298 66.9948 61.3953 66.4211 60.8327 66.1288C60.3362 65.8708 58.3635 65.728 57.6955 65.9016ZM65.3566 66.065C64.4728 66.4819 64.0728 66.8877 63.8962 67.5466C63.7834 67.9672 63.7977 68.2179 63.9557 68.598C64.2416 69.2857 64.3848 69.3357 65.0662 68.9863C65.6273 68.6987 65.6535 68.656 65.5639 68.1752C65.4491 67.561 65.6402 67.2888 66.3178 67.1008C66.9498 66.9254 67.7478 67.1394 68.0433 67.5631C68.1657 67.7386 68.2657 68.1177 68.2657 68.4052C68.2657 68.9274 68.2644 68.9284 67.3835 69.1113C65.6363 69.4739 64.6828 69.8493 64.0297 70.4316C63.4103 70.984 63.3929 71.0237 63.3929 71.8815C63.3929 72.6192 63.4524 72.8282 63.7565 73.1594C64.2504 73.6973 64.9125 73.9563 65.7929 73.9563C66.7085 73.9563 67.4193 73.667 67.9569 73.0755L68.3708 72.6202L68.4655 73.2151L68.5602 73.8101H69.8875H71.2148L71.1448 70.9233C71.0831 68.3865 71.0386 67.9656 70.7767 67.4519C70.1867 66.2947 69.3992 65.9148 67.3969 65.8212C66.205 65.7655 65.9196 65.7996 65.3566 66.065ZM77.5024 65.9928C77.2624 66.114 76.8208 66.4917 76.521 66.8324L75.9758 67.4519L75.9755 66.6845L75.9751 65.9171H74.5932H73.2113V69.8636V73.8101H74.5789H75.9466L76.0065 71.8734C76.0759 69.634 76.3678 68.6468 77.2219 67.7631C78.0797 66.8755 79.0026 67.1076 78.8058 68.1614C78.7151 68.6481 78.7399 68.6889 79.3037 68.978L79.8972 69.2822L80.1348 68.7324C80.629 67.5881 80.3457 66.4473 79.4517 65.9827C78.9254 65.7093 78.0557 65.7138 77.5024 65.9928ZM50.2289 69.8636V73.8101H51.6107H52.9926V69.8636V65.9171H51.6107H50.2289V69.8636ZM81.5025 69.8636V73.8101H82.8844H84.2662V69.8636V65.9171H82.8844H81.5025V69.8636ZM37.8013 67.2423L38.2285 67.6903V69.8852V72.0801L37.7534 72.5066C37.1578 73.0414 36.7901 73.0449 36.2685 72.5208C35.9164 72.1669 35.8431 71.9478 35.7527 70.9771C35.6373 69.7408 35.7614 67.9789 36.0008 67.4507C36.3346 66.7144 37.2023 66.614 37.8013 67.2423ZM90.8938 67.2423L91.321 67.6903V69.8614C91.321 71.9541 91.3083 72.0462 90.9707 72.4072C90.515 72.8947 90.1573 72.9989 89.6563 72.7903C89.0642 72.5439 88.8874 72.0238 88.8109 70.3021C88.7335 68.5595 88.9088 67.6699 89.4335 67.1427C89.9036 66.6703 90.3794 66.7028 90.8938 67.2423ZM27.4217 68.9925C28.1591 69.1983 28.5555 69.7422 28.5555 70.5484C28.5555 71.92 27.9791 72.3484 26.1338 72.3484H25.0645V70.5944V68.8404L25.9736 68.8413C26.4737 68.8418 27.1252 68.9097 27.4217 68.9925ZM68.1825 70.8131C68.1737 71.4103 68.1033 71.576 67.7075 71.9313C67.1812 72.4038 66.873 72.4487 66.4072 72.1209C66.0891 71.8971 65.9957 71.4339 66.1742 70.9664C66.3089 70.6137 67.6557 69.9722 68.0476 70.0741C68.1276 70.0948 68.1884 70.4274 68.1825 70.8131Z" fill="#F7F7F8"/>
<path fill-rule="evenodd" clip-rule="evenodd" d="M55.5275 0.0147518C55.4768 0.0951433 55.3894 0.456905 55.3334 0.818667C55.1674 1.88919 54.7315 2.65832 54.1275 2.94641C53.4034 3.29166 52.6373 3.08161 51.1107 2.11969C50.4707 1.71642 49.3906 1.11071 48.7106 0.77365C47.6112 0.228888 47.3602 0.160918 46.4447 0.160918C45.552 0.160918 45.3197 0.219971 44.6992 0.604681C43.8978 1.10135 43.1714 2.16749 42.8104 3.37658C42.461 4.54664 42.1097 6.74834 42.2245 7.04798C42.3711 7.43035 42.5334 7.10528 42.67 6.15564C42.8102 5.18202 43.0729 4.71137 43.69 4.32812C44.433 3.86667 45.0206 4.02059 47.1324 5.22997C49.8851 6.80637 50.5645 7.10353 51.4163 7.10368C53.0162 7.10397 53.8674 6.51638 54.6731 4.85564C55.3098 3.54292 55.7361 1.70765 55.6651 0.584358C55.6403 0.190732 55.5783 -0.0656397 55.5275 0.0147518ZM24.5368 1.69406C21.12 2.12233 18.4632 3.8867 17.1142 6.62352L16.4915 7.88669L16.1293 9.63497C16.1293 11.4916 16.2814 11.9281 16.7314 12.8466C17.3205 14.0487 18.2683 14.7124 19.3076 15.4205C21.002 16.5751 21.8301 16.8977 26.4521 18.2047C29.8996 19.1796 30.8921 19.6046 31.7727 20.4829C33.2053 21.9116 32.967 24.6251 31.2966 25.9036C30.1437 26.7861 29.2439 27.0317 26.9216 27.0975C24.5341 27.165 23.3948 27.0067 21.7874 26.3838C19.7748 25.604 18.0353 24.2747 16.976 22.7072C16.4079 21.8665 16.1279 21.6648 16.1279 22.0961C16.1279 22.4842 16.9148 23.5016 18.062 24.5966C19.2738 25.7533 21.1682 26.8056 22.7537 27.2026C24.8808 27.7352 28.4943 27.7391 30.5283 27.2109C31.0483 27.076 32.0301 26.6917 32.7102 26.3571C34.3223 25.5641 36.0599 23.8767 36.7397 22.4441C37.7806 20.2503 37.7697 17.8045 36.7091 15.6315C36.0384 14.2571 34.9905 13.2935 33.2315 12.4336C31.7861 11.843 31.5854 11.843 31.5854 11.843C31.5854 11.843 30.0251 11.2716 28.125 10.6953C24.076 9.46747 23.0047 9.08042 22.3099 8.59413C21.5975 8.0957 21.0893 7.20906 20.9794 6.27272C20.7969 4.72 21.5529 3.51456 23.2305 2.68375C24.1534 2.22669 24.274 2.20534 26.1943 2.15974C28.1665 2.11282 28.6815 2.18503 30.7828 2.80288C30.9808 2.86105 31.1101 2.83606 31.1101 2.73959C31.1101 2.06766 26.8992 1.39793 24.5368 1.69406ZM69.6567 1.98727C62.6105 3.73439 58.394 9.94485 59.5339 16.897C59.9892 19.6728 61.0991 21.7532 63.2038 23.7757C64.4657 24.9882 65.266 25.535 66.9398 26.328C71.373 28.4286 76.6652 28.0669 80.7235 25.3857C84.4283 22.9383 86.5782 18.9502 86.5604 14.5583C86.546 10.9807 85.2651 8.00479 82.6524 5.47845C80.7876 3.67534 78.2289 2.34669 75.766 1.90264C74.1512 1.61148 70.9962 1.65518 69.6567 1.98727ZM74.7169 2.42577C76.1834 3.06217 76.932 4.2926 77.5632 7.10382C77.8556 8.40572 77.8748 8.87579 77.8709 14.6314C77.8668 20.3646 77.8459 20.8651 77.5535 22.2035C77.0149 24.6695 76.1361 26.1741 74.8205 26.883C74.1258 27.2575 72.2613 27.3197 71.3468 26.999C69.5451 26.3671 68.4008 23.9619 68.0597 20.09C67.8721 17.9589 67.8713 11.7617 68.0585 9.58865C68.4452 5.09988 69.4417 2.96352 71.511 2.18766C72.2723 1.90206 73.7656 2.01299 74.7169 2.42577ZM31.2556 2.78329C31.2556 2.90855 31.321 3.01116 31.401 3.01116C31.481 3.01116 31.5465 2.94934 31.5465 2.87362C31.5465 2.79791 31.481 2.69544 31.401 2.64575C31.321 2.59605 31.2556 2.65802 31.2556 2.78329ZM31.6919 3.00576C31.6919 3.08308 32.0717 3.40567 32.536 3.72241C33.5192 4.39346 34.8666 5.80879 35.4115 6.74294C35.6211 7.10221 35.8516 7.39615 35.9241 7.39615C36.1747 7.39615 36.0541 6.84978 35.6785 6.28383C34.6189 4.68682 31.6919 2.28004 31.6919 3.00576ZM45.4148 9.074C43.9407 9.3428 43.0271 9.67489 42.2725 10.2158C40.7647 11.2969 40.167 12.5479 40.3091 14.326C40.3895 15.3328 40.6308 15.9001 41.2383 16.5105C41.7946 17.0697 41.8527 16.746 41.3187 16.0612C40.1792 14.6 40.3737 12.6576 41.8207 11.0481C43.2708 9.43517 46.7046 8.96568 48.3448 10.1562C49.4532 10.9607 49.8711 12.3857 49.8731 15.3667L49.8743 16.9791L46.7632 17.5876C41.9311 18.5329 40.2054 19.348 39.2948 21.1156C38.907 21.8682 38.8194 22.2062 38.8194 22.9491C38.8194 25.3081 40.0977 26.938 42.3315 27.4269C43.6554 27.7168 45.9967 27.5534 46.9762 27.1027C48.0306 26.6176 48.7852 25.9349 49.3207 24.9814C49.5604 24.5545 49.8106 24.1718 49.8765 24.1309C49.9424 24.09 50.0429 24.501 50.0998 25.0444C50.1568 25.5877 50.2446 26.3283 50.2951 26.6901L50.3869 27.3479L53.6943 27.3872L57.0018 27.4265L56.9983 22.4175C56.9939 15.9158 56.8704 14.2574 56.2996 13.0317C55.7661 11.8861 55.0035 11.0217 53.8805 10.2897C52.6555 9.49116 51.4698 9.17968 49.0015 9.00764C46.5359 8.83589 46.742 8.83209 45.4148 9.074ZM49.8205 17.7244C49.8739 17.9384 49.8797 19.32 49.8336 20.7948C49.7572 23.2285 49.7165 23.5483 49.3931 24.2583C48.7762 25.6121 47.4304 26.2816 46.6861 25.6047C46.078 25.0516 45.8742 24.1319 45.8742 21.9397C45.8742 20.0906 45.9069 19.8266 46.214 19.2001C46.647 18.3164 47.1279 17.9789 48.4488 17.6312C49.7978 17.276 49.7069 17.2698 49.8205 17.7244ZM66.4041 29.1302C66.353 29.1817 66.3111 29.341 66.3111 29.4844C66.3111 30.7733 65.5382 32.135 64.7019 32.3196C64.1982 32.4307 62.982 31.9085 61.3119 30.864C59.5269 29.7476 58.3708 29.272 57.452 29.2756C57.0044 29.2774 56.409 29.38 56.129 29.5035C55.0005 30.0014 54.0488 31.3642 53.5676 33.171C53.2788 34.2558 53.1317 36.3371 53.3438 36.3371C53.4357 36.3371 53.5108 36.1846 53.5108 35.9983C53.5108 35.335 53.9466 34.2001 54.3437 33.8286C55.2157 33.0133 56.0828 33.1942 58.5883 34.7145C60.8112 36.0632 61.5478 36.3789 62.4719 36.3789C64.3797 36.3789 65.7063 34.8911 66.354 32.0252C66.7818 30.132 66.8061 28.7262 66.4041 29.1302ZM32.8587 30.9707C32.1135 31.1111 31.8812 31.2197 31.748 31.4901C31.6342 31.7207 31.5568 31.7684 31.5101 31.6362C31.3621 31.2176 31.2422 31.6669 31.2842 32.4837L31.3283 33.3407L32.1811 32.5061C32.6501 32.0471 33.2719 31.5877 33.563 31.4854C34.2391 31.2474 36.2643 31.2445 36.9337 31.4804C38.2433 31.9422 39.3521 33.784 39.8385 36.3058C40.4478 39.464 40.5559 46.2825 40.0538 49.8899C39.5354 53.6154 38.8491 55.0825 37.1938 56.0039C36.5062 56.3866 36.2806 56.435 35.183 56.4344C34.1018 56.4338 33.8623 56.384 33.2756 56.038C32.5579 55.6147 31.8291 54.8581 31.3455 54.0345C31.0487 53.529 31.0465 53.5283 30.9476 53.8844C30.8784 54.1336 30.8436 53.9979 30.8332 53.4385C30.825 52.9964 30.7222 52.0755 30.6049 51.3922C29.8984 47.2788 29.936 40.018 30.6836 36.1579C30.8352 35.376 31.0029 34.0112 31.0564 33.1249C31.1727 31.2017 31.2295 31.2369 29.3602 32.0733C25.8044 33.6641 23.4121 36.3155 22.1654 40.0472C21.712 41.4048 21.5225 44.4255 21.7853 46.1073C22.1234 48.2701 23.2177 50.4877 24.8283 52.2733C26.4848 54.1099 28.2824 55.2734 30.8426 56.166C32.2568 56.659 32.4595 56.9393 34.5963 57.0069C36.3752 57.0634 37.1545 56.7808 38.1019 56.588C43.0587 55.5787 46.9426 52.0903 48.362 47.3726C48.7192 46.1853 48.7572 45.8435 48.7505 43.8647C48.742 41.3408 48.4791 40.0506 47.6095 38.2691C45.4257 33.7944 40.9664 31.0371 35.6193 30.8551C34.5326 30.8181 33.422 30.8646 32.8587 30.9707ZM81.8482 30.9403C76.9672 31.6598 72.8344 34.9216 71.1228 39.4053C70.5319 40.9532 70.3305 42.4305 70.4202 44.5573C70.5678 48.0513 71.8371 50.7519 74.4935 53.2232C76.1667 54.7799 78.2155 55.8677 80.6844 56.5101C81.744 56.7858 82.1941 56.8179 84.3208 56.7697C86.6605 56.7166 86.806 56.6951 88.3531 56.1757C90.5455 55.4396 92.2473 54.4027 93.8053 52.8539C95.9655 50.7061 97.1448 48.2779 97.4767 45.2934C98.0751 39.912 95.5201 35.1433 90.5737 32.4096C88.2533 31.1273 84.6715 30.5242 81.8482 30.9403ZM11.5792 40.9779C11.5043 51.3073 11.4566 52.1239 10.8532 53.4147C10.4393 54.3002 9.45232 55.2836 8.59484 55.6647C7.102 56.3283 4.93859 56.0998 3.30756 55.1063C1.27347 53.8673 0.344423 52.0318 0.441153 49.444C0.50341 47.7765 0.820218 47.0651 2.02796 45.8794C2.50158 45.4145 2.88966 44.983 2.8901 44.9206C2.89228 44.6734 2.04411 45.2683 1.38532 45.976C0.450461 46.9803 0.109215 47.8041 0.0177216 49.2775C-0.11581 51.4289 0.502972 53.1163 1.95203 54.5521C3.79179 56.3752 6.70228 57.1873 10.0186 56.8033C11.889 56.5865 12.9252 56.303 14.338 55.6211C16.3922 54.6297 17.7305 53.1453 18.6466 50.8425L19.0967 49.7113L19.1538 40.3932L19.211 31.0751H15.431H11.6509L11.5792 40.9779ZM85.2046 31.3777C87.0799 31.7818 88.3537 34.055 88.8715 37.9221C89.1234 39.8033 88.9601 49.8464 88.6561 51.1711C87.8126 54.8458 86.5862 56.3027 84.1914 56.4749C83.3188 56.5377 83.0998 56.4959 82.2787 56.1097C80.7209 55.3772 79.9275 54.0595 79.4117 51.3482C78.4584 46.336 78.6824 37.899 79.8605 34.4488C80.7537 31.8328 82.5437 30.8041 85.2046 31.3777ZM56.4754 38.2272C55.3158 38.4135 53.8636 38.9476 53.1081 39.4656C51.3703 40.6575 50.678 43.0071 51.5478 44.7612C51.9574 45.5872 52.5245 46.1926 52.8018 46.0997C52.9196 46.0602 52.8216 45.8902 52.5309 45.6301C51.9071 45.0714 51.6198 44.2694 51.6198 43.0865C51.6198 41.4387 52.3429 40.3133 54.0459 39.3104C54.6468 38.9565 54.9256 38.8951 56.1588 38.8454C58.1122 38.7665 58.7953 38.8911 59.4165 39.4392C60.4931 40.389 60.8711 41.9307 60.7033 44.6873L60.6087 46.2407L59.9732 46.3283C58.9541 46.4686 54.545 47.444 53.8149 47.6906C50.575 48.7848 49.1198 51.0717 49.9736 53.728C50.4906 55.3368 52.0921 56.5199 54.1402 56.8061C56.8758 57.1884 59.4132 56.0229 60.486 53.8911L60.8892 53.0898L61.0748 54.6162C61.1993 55.641 61.3346 56.2027 61.4861 56.3253C61.6511 56.4586 62.5494 56.508 64.8116 56.508H67.9112V50.3189C67.9112 44.6563 67.8881 44.0621 67.6395 43.3361C66.7064 40.6108 65.4483 39.3923 62.7474 38.598C61.6636 38.2793 61.0752 38.2039 59.3291 38.1602C58.1691 38.1313 56.885 38.1614 56.4754 38.2272ZM60.6547 46.8919C60.7802 47.1275 60.8006 47.9699 60.7299 49.9979C60.6381 52.6364 60.6124 52.8225 60.2356 53.5847C59.5419 54.9882 58.3915 55.442 57.5842 54.631C56.9885 54.0324 56.7983 53.185 56.7911 51.0999C56.7855 49.4218 56.8163 49.2053 57.1705 48.4448C57.6149 47.4909 57.9806 47.2073 59.23 46.8481C60.4039 46.5106 60.4523 46.512 60.6547 46.8919Z" fill="#F7F7F8"/>
<path d="M32.99 3.61311C32.3878 2.81019 30.3805 2.20801 30.1798 2.20801C29.6445 2.20801 28.8951 2.2883 30.1798 2.60947C31.4645 2.93063 32.8562 3.94766 33.3914 4.41602L32.7893 3.61311C32.99 3.74693 33.2625 3.97647 32.99 3.61311Z" fill="#F7F7F8"/>
<path d="M29.1763 32.3175C30.9427 31.0328 33.5254 30.8455 34.596 30.9124C36.2018 31.1131 38.5703 31.4744 35.198 31.3139C31.8258 31.1533 30.7152 34.5924 30.5814 36.3321C29.377 35.5291 27.4099 33.6021 29.1763 32.3175Z" fill="#F7F7F8"/>
<path d="M33.3919 56.204C31.1839 54.7989 30.6486 52.524 30.5817 51.1858C30.1802 51.7211 29.4174 53.1128 29.578 54.3974C29.7788 56.0033 35.7506 57.7051 33.3919 56.204Z" fill="#F7F7F8"/>
<path fill-rule="evenodd" clip-rule="evenodd" d="M223.257 17.3504C223.199 17.5433 223.061 18.1136 222.952 18.618C222.842 19.1224 222.694 19.6855 222.624 19.8696C222.511 20.1665 222.696 20.204 224.281 20.204H226.065L226.38 18.76C226.554 17.9658 226.652 17.2449 226.598 17.158C226.545 17.0711 225.795 17 224.932 17C223.611 17 223.346 17.0553 223.257 17.3504ZM282.341 17.7509C282.233 18.164 281.879 19.5676 281.554 20.87C281.23 22.1726 280.912 23.2902 280.849 23.3537C280.786 23.4172 280.552 23.2366 280.33 22.9524C279.441 21.8178 277.24 21.7161 275.602 22.7339C273.646 23.9494 272.424 26.4131 272.595 28.7971C272.731 30.6856 273.76 31.8008 275.522 31.971C276.852 32.0994 277.33 31.9558 278.462 31.0881C279.158 30.5537 279.438 30.4323 279.506 30.6358C279.557 30.7886 279.856 31.1722 280.17 31.4882C280.708 32.0293 280.822 32.0585 282.102 31.9859C283.219 31.9224 283.595 31.807 284.202 31.3416C285.114 30.6432 285.287 30.2395 284.823 29.8982C284.523 29.6778 284.383 29.7018 283.908 30.0542C283.6 30.2833 283.215 30.4195 283.053 30.357C282.71 30.2245 282.841 29.5528 284.624 22.285C285.222 19.8499 285.711 17.6648 285.711 17.4289C285.711 17.0264 285.613 17 284.124 17H282.537L282.341 17.7509ZM118.127 18.4364C117.595 19.0105 109.192 31.0723 109.031 31.4926C108.928 31.7638 109.057 31.8184 109.804 31.8184C110.584 31.8184 110.784 31.7245 111.327 31.1023C111.671 30.7086 112.187 30.0302 112.474 29.5949L112.995 28.8035L115.593 28.8592L118.191 28.9148L118.354 29.6157C118.444 30.0012 118.61 30.6546 118.723 31.0675L118.929 31.8184H120.615C122.525 31.8184 122.505 31.8425 122.083 30.0162C121.968 29.5206 121.484 27.2227 121.007 24.9098C120.531 22.597 120.036 20.2302 119.908 19.6503C119.552 18.0311 118.909 17.5929 118.127 18.4364ZM173.117 19.4458C171.356 20.1249 170.874 20.4667 170.625 21.214C170.465 21.6962 170.219 21.9668 169.813 22.1063C168.921 22.4135 168.733 22.5893 168.733 23.1194C168.733 23.5041 168.837 23.6082 169.22 23.6082C169.487 23.6082 169.757 23.6905 169.819 23.7912C169.881 23.892 169.662 25.0839 169.332 26.4395C168.448 30.0781 168.553 31.0034 169.931 31.7195C170.82 32.1815 172.64 32.0984 173.831 31.5413C174.892 31.0447 175.486 30.4391 175.903 29.4272C176.462 28.0696 175.42 27.7284 174.617 29.0063C174.06 29.8932 173.584 30.2164 172.836 30.2164C172.038 30.2164 171.996 29.4979 172.626 26.7007C172.933 25.3394 173.255 24.109 173.342 23.9669C173.44 23.8075 174.094 23.6699 175.049 23.6082C176.518 23.5133 176.607 23.4803 176.788 22.9614C176.892 22.6606 176.913 22.3492 176.833 22.2693C176.754 22.1894 176.065 22.124 175.302 22.124C173.706 22.124 173.703 22.1172 174.214 20.204C174.375 19.5982 174.509 19.0802 174.51 19.0525C174.515 18.943 174.166 19.0417 173.117 19.4458ZM135.208 22.3471C133.188 23.0241 131.537 25.3248 131.337 27.7422C131.17 29.7621 132.295 31.338 134.096 31.605C135.442 31.8046 136.385 31.5577 137.184 30.7972L137.898 30.1163L137.783 30.8743C137.599 32.0932 136.76 33.7146 136.052 34.2214C134.236 35.5202 131.069 34.3988 131.827 32.726C132.02 32.3016 131.99 32.1885 131.62 31.9276C131.253 31.6699 131.125 31.6644 130.78 31.8927C129.332 32.8487 129.844 35.1672 131.664 35.8989C133.729 36.7291 136.878 36.3845 138.496 35.1516C139.9 34.0815 140.476 32.9889 141.427 29.5981C142.77 24.8053 143.25 22.5475 142.966 22.3607C142.835 22.2742 142.147 22.2265 141.439 22.2549C140.176 22.3056 140.146 22.3194 139.968 22.9468L139.786 23.5872L139.181 22.9794C138.142 21.9351 136.986 21.7511 135.208 22.3471ZM148.905 22.1941C147.185 22.6168 145.447 24.0396 144.768 25.5805C144.343 26.5469 144.088 28.6517 144.296 29.4829C144.656 30.9271 146.374 32.0073 148.321 32.0143C150.195 32.0211 151.403 31.5725 152.38 30.5066C153.231 29.5798 153.302 29.2929 152.765 28.9529C152.543 28.8123 152.218 28.9511 151.527 29.4811C149.575 30.9786 147.736 30.4816 147.567 28.4104L147.51 27.7143L148.905 27.5868C151.695 27.3315 152.996 26.7025 153.607 25.3129C154.069 24.265 153.97 23.6551 153.223 22.948C152.353 22.1234 150.505 21.801 148.905 22.1941ZM162.184 22.2804C161.816 22.4143 161.156 22.8268 160.717 23.1967L159.92 23.8693L160.059 23.0379L160.199 22.2065H158.612H157.024L156.797 23.0575C156.673 23.5257 156.165 25.5306 155.668 27.5131C155.172 29.4955 154.719 31.2752 154.662 31.468C154.568 31.7824 154.731 31.8184 156.243 31.8184H157.929L158.359 30.1664C159.324 26.4574 159.589 25.7487 160.261 25.073C161.075 24.2548 161.864 24.1835 162.188 24.899C162.363 25.2837 162.321 25.7883 161.993 27.252C161.357 30.0875 161.303 30.537 161.547 30.9942C162.283 32.3755 165.528 32.3074 166.786 30.8843C167.1 30.5292 167.103 30.4545 166.822 30.0514L166.514 29.6085L166.002 30.0126C165.393 30.4946 164.748 30.5409 164.748 30.1025C164.748 29.9297 164.983 28.871 165.271 27.7496C165.558 26.6284 165.805 25.1407 165.819 24.4439C165.842 23.252 165.805 23.142 165.193 22.5916C164.468 21.9397 163.42 21.8312 162.184 22.2804ZM181.749 22.4264C180.506 22.9066 178.917 24.3676 178.284 25.6107C177.922 26.3216 177.823 26.8529 177.813 28.128C177.802 29.5993 177.851 29.8101 178.359 30.4812C179.118 31.4832 179.879 31.8331 181.579 31.9622C183.547 32.1118 184.771 31.6937 185.869 30.4958C186.715 29.5736 186.781 29.2929 186.231 28.9443C185.989 28.7915 185.718 28.9156 185.064 29.4777C184.08 30.3242 183.138 30.5717 182.272 30.2112C181.352 29.8284 180.713 28.2706 181.321 27.8934C181.448 27.8141 182.283 27.6408 183.176 27.5083C184.069 27.3759 185.132 27.1092 185.537 26.9157C187.342 26.0551 187.886 24.1745 186.686 22.9436C185.726 21.9594 183.548 21.7313 181.749 22.4264ZM202.262 22.3048C201.282 22.7327 201.448 23.9584 202.452 23.7055C203.431 23.4584 204.036 24.8105 203.628 26.3328C202.934 28.924 200.333 30.9217 199.032 29.863C198.555 29.4747 198.554 29.4605 198.814 27.9929C198.959 27.1795 199.323 25.5935 199.623 24.4687C199.924 23.3437 200.121 22.3745 200.062 22.3148C200.002 22.2553 199.255 22.2065 198.401 22.2065H196.847L196.649 22.9574C196.34 24.1319 195.499 27.8315 195.35 28.6775C195.146 29.8283 195.843 31.1496 196.91 31.6364C197.929 32.1012 199.632 32.1272 200.889 31.6971C204.694 30.3941 207.302 23.2514 204.349 22.2171C203.557 21.9397 203.049 21.9612 202.262 22.3048ZM210.39 22.3535C208.446 23.0431 206.898 25.4345 206.67 28.1006C206.584 29.1129 206.644 29.4635 207.03 30.2046C207.661 31.4169 208.293 31.8294 209.717 31.9592C211.075 32.083 211.876 31.7736 212.784 30.7737L213.332 30.1712L213.661 30.8671C213.841 31.2495 214.213 31.6652 214.487 31.7906C216.002 32.4843 219.073 31.4684 218.911 30.3276C218.838 29.819 218.117 29.6798 217.764 30.1067C217.399 30.5481 216.76 30.5036 216.76 30.0368C216.76 29.828 217.164 28.1136 217.658 26.2275C218.152 24.3413 218.578 22.6875 218.605 22.5523C218.639 22.3781 218.182 22.2898 217.031 22.2487L215.409 22.1911L215.186 22.8355L214.962 23.4797L214.367 22.8683C213.476 21.9522 212.044 21.7669 210.39 22.3535ZM237.303 22.3501C235.446 23.0093 233.765 25.4621 233.551 27.8239C233.416 29.3203 233.853 30.5607 234.815 31.4085C235.406 31.9304 235.665 32.0187 236.601 32.0187C237.943 32.0187 238.827 31.6672 239.613 30.8222L240.211 30.1792L240.47 30.8066C240.838 31.6989 241.399 32.0187 242.598 32.0187C243.855 32.0187 244.58 31.764 245.307 31.0673C245.941 30.4593 245.998 30.1071 245.504 29.842C245.25 29.7054 245.025 29.7585 244.685 30.0352C244.058 30.5452 243.662 30.5184 243.665 29.9661C243.667 29.7184 244.068 27.9486 244.557 26.0332C245.045 24.118 245.397 22.4734 245.339 22.3787C245.281 22.284 244.575 22.2065 243.77 22.2065H242.307L242.076 22.8573L241.846 23.5081L241.474 23.0535C240.65 22.0489 238.956 21.7631 237.303 22.3501ZM251.181 22.3973C249.606 22.9031 248.413 23.9362 247.663 25.4435C246.528 27.7253 246.981 30.0124 248.827 31.3178C249.636 31.8899 249.773 31.9186 251.701 31.9186C253.518 31.9186 253.844 31.8605 254.867 31.3556C256.047 30.7731 257.158 29.6583 257.699 28.5131C257.9 28.0864 258.011 27.2902 258.011 26.2609C258.011 24.9365 257.935 24.555 257.557 23.9931C256.337 22.173 253.831 21.5461 251.181 22.3973ZM261.865 22.2061C261.567 22.3266 261.335 22.7239 261.112 23.4927C260.52 25.541 259.429 30.3078 259.367 31.1176L259.306 31.9186L260.72 31.9768C261.698 32.0171 262.194 31.9554 262.331 31.7766C262.439 31.6344 262.855 30.2585 263.254 28.7192C263.652 27.1797 264.146 25.6928 264.351 25.4151C264.842 24.7478 265.696 24.3439 266.296 24.4951C266.712 24.6002 266.779 24.7344 266.779 25.4643C266.779 25.9303 266.547 27.1598 266.264 28.1967C265.884 29.5917 265.802 30.1906 265.948 30.4996C266.056 30.7293 266.196 31.0763 266.258 31.2708C266.511 32.0655 268.693 32.2732 270.09 31.6354C270.988 31.2259 271.592 30.5284 271.426 30.0933C271.284 29.7228 270.922 29.7439 270.191 30.165C269.196 30.7391 269.117 30.3792 269.691 27.9084C270.624 23.8992 270.538 22.826 269.242 22.282C267.827 21.688 266.642 21.9712 265.286 23.2273L264.388 24.059L264.511 23.1625C264.631 22.2778 264.624 22.2641 263.987 22.136C263.141 21.966 262.397 21.9904 261.865 22.2061ZM290.669 22.2698C288.611 22.8555 286.787 24.8584 286.32 27.0453C286.062 28.2522 286.211 29.3129 286.778 30.3302C287.378 31.4045 288.208 31.827 289.981 31.9618C291.848 32.1038 293.003 31.7974 294.074 30.8761C295.104 29.9906 295.385 29.4881 295.066 29.1023C294.7 28.6585 294.209 28.7584 293.596 29.4008C292.754 30.2841 292.033 30.5236 291.08 30.2367C290.226 29.9795 289.772 29.4463 289.578 28.4709L289.454 27.8477L290.621 27.7135C293.545 27.3775 295.436 26.4442 295.87 25.1221C296.069 24.515 296.05 24.2955 295.74 23.6701C295.54 23.2648 295.148 22.766 294.869 22.5617C294.203 22.0735 291.917 21.9147 290.669 22.2698ZM222.038 22.4568C221.646 23.5556 220.347 29.4651 220.347 30.1516C220.347 31.602 221.206 32.146 223.231 31.9774C224.901 31.8382 226.449 30.495 225.632 29.8946C225.327 29.6701 225.199 29.6894 224.776 30.0236C224.107 30.5523 223.735 30.5214 223.735 29.9375C223.735 29.674 224.092 27.9845 224.529 26.1828C224.966 24.3814 225.325 22.7497 225.326 22.5569C225.328 22.2521 225.121 22.2065 223.728 22.2065C222.628 22.2065 222.1 22.2848 222.038 22.4568ZM117.385 24.5594C117.548 25.3029 117.742 26.2041 117.815 26.5619L117.949 27.2127H116.031H114.114L115.465 25.2102C116.209 24.1088 116.878 23.2077 116.952 23.2077C117.027 23.2077 117.221 23.8159 117.385 24.5594ZM150.832 23.5391C151.772 24.3938 150.685 25.9606 148.844 26.4029C148.263 26.5427 147.737 26.6065 147.675 26.5447C147.493 26.361 147.971 25.1972 148.533 24.4565C148.821 24.0776 149.336 23.6451 149.678 23.4955C150.465 23.1513 150.403 23.1489 150.832 23.5391ZM184.363 23.5223C185.149 24.3125 184.304 25.7597 182.744 26.2938C181.404 26.7525 181.028 26.7203 181.2 26.1614C181.525 25.1051 182.135 24.189 182.829 23.7152C183.695 23.124 183.936 23.0938 184.363 23.5223ZM254.144 23.6302C255.022 24.6087 254.252 28.5177 252.88 30.0438C252.054 30.9626 251.397 31.0513 250.913 30.309C250.059 28.9999 251.494 23.9741 252.88 23.4138C253.557 23.1405 253.73 23.1703 254.144 23.6302ZM293.046 24.1497C293.137 25.0895 292.78 25.5849 291.623 26.1259C289.706 27.0231 289.262 26.6901 290.21 25.065C290.799 24.0558 291.761 23.3749 292.486 23.4538C292.887 23.4975 292.996 23.6334 293.046 24.1497ZM138.554 23.8928C138.862 24.1197 138.94 24.4158 138.935 25.3512C138.926 26.9089 138.4 28.2258 137.434 29.1023C136.48 29.9685 135.84 30.0162 135.248 29.2653C134.887 28.8075 134.832 28.5395 134.919 27.6783C135.045 26.4281 135.684 24.909 136.398 24.1589C136.989 23.5395 137.918 23.4248 138.554 23.8928ZM213.726 23.92C214.109 24.1895 214.169 24.4128 214.167 25.5721C214.164 27.9152 212.761 30.1163 211.358 29.9806C210.453 29.893 210.13 29.2531 210.279 27.8401C210.431 26.3919 211.085 24.9349 211.909 24.2076C212.675 23.5325 213.084 23.4676 213.726 23.92ZM240.525 23.8876C241.206 24.4072 241.307 25.1982 240.896 26.7746C240.276 29.1457 239.102 30.4299 237.945 30C237.254 29.743 237.022 29.0862 237.159 27.7722C237.319 26.2343 238.116 24.5556 238.937 24.0269C239.68 23.5489 240.039 23.5173 240.525 23.8876ZM279.76 23.9919C280.807 24.8454 280.025 28.5504 278.581 29.5838C277.268 30.5232 276.145 29.9215 276.145 28.2786C276.145 27.2948 276.932 24.9749 277.47 24.3742C278.194 23.5644 279.059 23.4202 279.76 23.9919Z" fill="#FEC72F"/>
<path fill-rule="evenodd" clip-rule="evenodd" d="M228.366 37.7226C227.927 38.6013 227.567 39.4123 227.567 39.5248C227.567 39.6374 227.832 39.7295 228.155 39.7295C228.769 39.7295 230.257 38.6073 231.842 36.9492L232.63 36.125H230.898H229.166L228.366 37.7226ZM215.613 38.7026C214.262 39.2042 214.102 39.322 213.919 39.9437C213.632 40.9202 213.457 41.1312 212.933 41.1312C212.391 41.1312 212.108 41.4248 211.918 42.1837C211.792 42.6896 211.827 42.7332 212.367 42.7332C212.69 42.7332 213.002 42.7823 213.062 42.8424C213.122 42.9022 212.869 44.1414 212.502 45.5958C212.134 47.0502 211.831 48.481 211.829 48.7753C211.823 49.4482 212.698 50.5119 213.552 50.8705C215.494 51.6858 218.158 50.564 219.223 48.4836C219.674 47.6035 219.583 47.339 218.832 47.339C218.421 47.339 218.204 47.5031 217.924 48.0254C217.505 48.8066 216.651 49.2461 215.913 49.0599C215.234 48.8887 215.251 48.2195 216.008 45.2077C216.337 43.9019 216.606 42.8109 216.606 42.7833C216.607 42.7556 217.318 42.7332 218.188 42.7332C219.598 42.7332 219.781 42.69 219.882 42.3327C219.944 42.1125 220.045 41.752 220.108 41.5317C220.213 41.1583 220.125 41.1312 218.806 41.1312C217.113 41.1312 217.032 41.0225 217.458 39.324C217.819 37.883 217.819 37.883 215.613 38.7026ZM114.059 41.128C111.905 41.582 110.476 42.6235 109.605 44.3745C109.123 45.3453 108.997 45.8549 109 46.8203C109.008 49.0517 109.897 50.271 111.952 50.8715C114.791 51.7006 118.167 50.2676 119.445 47.6912C120.034 46.5023 120.143 44.5619 119.682 43.4778C118.922 41.6933 116.392 40.636 114.059 41.128ZM131.836 41.2592C130.477 41.6785 128.934 43.2559 128.331 44.842C127.704 46.4913 127.689 48.6063 128.296 49.594C128.784 50.3871 130.163 51.1437 131.12 51.1437C131.969 51.1437 133.096 50.632 133.839 49.9091L134.47 49.2958L134.789 49.916C135.501 51.2999 137.559 51.5342 139.151 50.4124C140.018 49.8014 140.34 49.0273 139.812 48.8238C139.648 48.7603 139.246 48.9065 138.92 49.1486C137.623 50.1124 137.615 49.301 138.878 44.6937C139.322 43.0737 139.685 41.6094 139.685 41.4396C139.685 41.1891 139.402 41.1312 138.18 41.1312H136.675L136.373 41.8575L136.071 42.584L135.759 42.1363C135.388 41.6038 134.008 40.936 133.308 40.9494C133.034 40.9546 132.372 41.094 131.836 41.2592ZM148.894 41.1827C148.534 41.2986 147.826 41.7596 147.32 42.2074L146.4 43.0212L146.544 42.2472C146.647 41.6933 146.614 41.4254 146.425 41.3053C145.98 41.0219 143.746 41.099 143.492 41.4066C143.332 41.5998 143.28 43.0522 143.318 46.2626L143.371 50.8433H143.865C144.328 50.8433 144.4 50.6905 145.001 48.4467C145.818 45.3945 146.164 44.4942 146.714 43.988C147.391 43.3662 147.935 43.2727 148.448 43.6898L148.897 44.055L148.077 47.3722C147.626 49.1965 147.257 50.75 147.257 50.8245C147.257 50.8988 147.988 50.9334 148.881 50.9014L150.504 50.8433L151.18 48.3402C152.043 45.1436 152.527 44.148 153.465 43.6434C154.078 43.3139 154.243 43.2939 154.511 43.5178C154.928 43.865 154.908 44.6424 154.427 46.8281C153.817 49.601 153.916 50.2648 155.025 50.8413C156.133 51.4168 157.923 51.0788 158.962 50.098C159.842 49.2675 159.286 48.4113 158.349 49.1524C157.237 50.0309 157.111 49.4013 157.824 46.538C158.03 45.7119 158.258 44.4471 158.331 43.7274C158.455 42.5061 158.428 42.3764 157.933 41.786C156.899 40.5511 154.942 40.766 153.197 42.3061L152.481 42.9379L152.062 42.225C151.648 41.5199 150.615 40.9106 149.904 40.9514C149.709 40.9626 149.255 41.0667 148.894 41.1827ZM165.053 41.2912C162.815 42.0958 161.24 43.804 160.793 45.9126C160.367 47.9225 161.027 49.4662 162.747 50.4818C163.592 50.9811 163.886 51.0426 165.392 51.035C167.426 51.0247 168.629 50.561 169.942 49.2818C171.285 47.9729 171.659 47.1087 171.665 45.3036C171.669 43.9169 171.611 43.6862 171.07 42.9116C169.896 41.2336 167.219 40.5126 165.053 41.2912ZM180.694 41.1723C180.287 41.2796 179.533 41.741 179.017 42.1972L178.079 43.0266L178.208 42.079L178.337 41.1312L177.395 41.1334C176.876 41.1346 176.126 41.1899 175.728 41.256L175.003 41.3763L173.876 45.965C173.256 48.4888 172.802 50.6415 172.868 50.7486C172.934 50.8557 173.679 50.9434 174.522 50.9434H176.057L176.503 49.1913C177.056 47.0192 178.084 44.9035 179.131 43.7815C180.121 42.7218 180.877 42.3882 181.308 42.8211C181.579 43.0939 181.576 43.1994 181.278 43.8278L180.945 44.5299L181.525 44.8316C181.845 44.9976 182.238 45.0825 182.399 45.0203C182.681 44.9119 183.526 43.198 183.526 42.7362C183.526 42.2462 182.907 41.3523 182.482 41.2297C181.631 40.9836 181.432 40.9772 180.694 41.1723ZM195.337 41.1477C192.575 41.6771 190.547 43.9485 190.348 46.7342C190.215 48.6015 190.705 49.6927 192.025 50.4727C192.871 50.9719 193.192 51.0436 194.586 51.0436C195.982 51.0436 196.314 50.9693 197.251 50.448C197.839 50.1204 198.546 49.5551 198.822 49.1921C199.306 48.5545 199.311 48.518 198.967 48.1356C198.485 47.6007 198.382 47.6259 197.616 48.4662C197.064 49.0711 196.786 49.2089 195.956 49.289C195.112 49.3705 194.875 49.3126 194.42 48.9129C193.783 48.3538 193.406 47.2531 193.756 46.9755C193.884 46.8742 194.737 46.6767 195.652 46.5369C196.608 46.3908 197.753 46.06 198.342 45.7594C199.194 45.3253 199.432 45.0787 199.745 44.3082C200.114 43.3984 200.114 43.3648 199.745 42.6061C199.148 41.3763 197.312 40.7692 195.337 41.1477ZM205.186 41.1455C203.442 41.4298 202.195 42.8139 202.193 44.4696C202.192 45.6563 202.592 46.1333 204.415 47.1197C205.299 47.5975 206.22 48.1736 206.461 48.3997L206.9 48.811L206.337 49.298C205.848 49.7209 205.622 49.7738 204.622 49.7011C203.183 49.5966 202.57 49.1286 202.742 48.2661C202.966 47.1395 202.1 46.7841 201.192 47.6297C199.135 49.5453 203.187 51.9285 206.696 50.8673C208.006 50.4712 208.828 49.8096 209.277 48.7888C210.032 47.0744 209.319 45.8837 206.731 44.5355C205.992 44.15 205.29 43.6786 205.171 43.488C204.853 42.9767 205.417 42.5097 206.499 42.3872C207.233 42.3041 207.471 42.3636 207.825 42.72C208.116 43.0124 208.216 43.2865 208.129 43.5592C207.999 43.974 208.476 44.516 208.984 44.5291C209.427 44.5405 210.031 43.7507 210.031 43.1608C210.031 41.6166 207.853 40.7107 205.186 41.1455ZM224.165 41.5271C221.94 42.7092 220.267 46.4374 220.984 48.6188C221.279 49.5169 222.045 50.4588 222.798 50.8505C224.01 51.4803 225.859 51.0404 226.954 49.8615C227.528 49.2435 227.766 49.2033 227.766 49.7241C227.766 50.397 228.879 51.1437 229.881 51.1437C230.832 51.1437 232.395 50.4686 232.999 49.796C233.334 49.4235 233.333 49.3911 232.964 49.0563C232.596 48.7217 232.552 48.7263 231.965 49.1626C231.499 49.5089 231.295 49.5629 231.12 49.3869C230.85 49.1162 231.017 48.2315 232.071 44.3372C232.444 42.9615 232.748 41.6775 232.748 41.4837C232.748 41.1783 232.547 41.1312 231.244 41.1312H229.739L229.439 41.8517L229.14 42.572L228.444 41.8517C227.769 41.1537 227.703 41.1314 226.312 41.14C225.303 41.1462 224.666 41.2612 224.165 41.5271ZM115.959 42.5654C116.387 42.9661 116.413 43.1109 116.309 44.5178C116.143 46.7686 115.689 48.039 114.668 49.1202C113.809 50.0281 113.787 50.0375 113.239 49.7353C112.743 49.4614 112.676 49.3024 112.622 48.2657C112.502 45.9532 113.44 43.2571 114.614 42.5374C115.427 42.0396 115.397 42.039 115.959 42.5654ZM167.703 42.5552C168.596 43.5504 167.825 47.8298 166.497 49.2447C165.694 50.101 165.135 50.1136 164.525 49.2896C164.14 48.7693 164.129 48.641 164.353 47.1017C164.658 44.9992 165.525 43.0903 166.425 42.5386C167.241 42.0387 167.239 42.0387 167.703 42.5552ZM197.12 42.8468C197.457 43.5917 196.865 44.6094 195.789 45.1326C194.907 45.5622 193.69 45.6755 193.69 45.3284C193.69 44.857 194.51 43.5551 195.179 42.9645C196.068 42.1805 196.798 42.1363 197.12 42.8468ZM134.942 43.1429C135.512 43.7156 135.541 43.8164 135.412 44.795C135.25 46.0363 134.438 47.9443 133.826 48.5214C133.585 48.7487 133.121 48.9884 132.795 49.0539C130.692 49.4766 131.101 44.4718 133.291 42.9891C134.152 42.4064 134.215 42.4124 134.942 43.1429ZM227.905 43.0164C228.367 43.4159 228.461 43.652 228.446 44.3761C228.385 47.2995 226.153 50.0946 224.891 48.8268C223.701 47.6303 224.919 43.4521 226.67 42.724C227.257 42.4803 227.295 42.4895 227.905 43.0164ZM142.755 43.8847C142.686 44.1876 142.287 45.8275 141.867 47.5288C141.448 49.2303 141.149 50.6945 141.204 50.7828C141.258 50.8711 141.701 50.9434 142.188 50.9434H143.073V47.1387C143.073 45.0461 143.029 43.334 142.977 43.334C142.924 43.334 142.824 43.5817 142.755 43.8847ZM235.036 48.8865C234.848 49.7377 234.65 50.5487 234.597 50.6887C234.522 50.8828 234.909 50.9434 236.215 50.9434H237.93L237.953 50.2926C237.966 49.9118 238.015 49.7962 238.071 50.0139C238.134 50.2578 238.33 49.9158 238.641 49.0214C239.003 47.982 239.057 47.6197 238.871 47.5009C238.737 47.4152 237.896 47.3438 237.003 47.342L235.379 47.339L235.036 48.8865ZM236.647 61.8985C236.539 62.1838 236.562 62.2068 236.759 62.0106C236.895 61.8746 236.956 61.713 236.895 61.6516C236.834 61.5899 236.722 61.701 236.647 61.8985Z" fill="#FEC72F"/>
</svg>
